<?xml version="1.0" encoding="UTF-8"?>
<svg xmlns="http://www.w3.org/2000/svg" xmlns:xlink="http://www.w3.org/1999/xlink" width="50pt" height="25pt" viewBox="0 0 50 25" version="1.1">
<g id="surface1">
<path style=" stroke:none;fill-rule:evenodd;fill:rgb(36.470588%,73.72549%,82.352941%);fill-opacity:1;" d="M 13.753906 13.144531 L 15.519531 17.253906 L 14.054688 17.253906 L 12.621094 13.84375 L 12.585938 13.757812 Z M 13.753906 13.144531 "/>
<path style=" stroke:none;fill-rule:evenodd;fill:rgb(36.470588%,73.72549%,82.352941%);fill-opacity:1;" d="M 15.488281 10.761719 L 3.011719 17.300781 L 4.515625 13.898438 Z M 15.488281 10.761719 "/>
<path style=" stroke:none;fill-rule:evenodd;fill:rgb(36.470588%,73.72549%,82.352941%);fill-opacity:1;" d="M 20.875 17.339844 L 19.628906 17.339844 L 19.628906 8.753906 L 20.875 8.753906 Z M 20.875 17.339844 "/>
<path style=" stroke:none;fill-rule:evenodd;fill:rgb(36.470588%,73.72549%,82.352941%);fill-opacity:1;" d="M 46.980469 8.753906 L 42.707031 19.5625 C 42.449219 20.222656 42.121094 20.75 41.726562 21.148438 C 41.328125 21.546875 40.757812 21.746094 40.011719 21.746094 C 39.628906 21.746094 39.257812 21.707031 38.890625 21.632812 L 39.019531 20.496094 C 39.3125 20.59375 39.617188 20.644531 39.9375 20.644531 C 40.363281 20.644531 40.699219 20.511719 40.945312 20.25 C 41.191406 19.984375 41.402344 19.609375 41.585938 19.121094 L 42.285156 17.324219 L 38.617188 8.753906 L 40.011719 8.753906 L 42.925781 16.003906 L 42.964844 16.003906 L 45.625 8.753906 Z M 46.980469 8.753906 "/>
<path style=" stroke:none;fill-rule:evenodd;fill:rgb(36.470588%,73.72549%,82.352941%);fill-opacity:1;" d="M 28.929688 8.535156 C 29.089844 8.535156 29.234375 8.542969 29.359375 8.554688 C 29.488281 8.566406 29.621094 8.589844 29.753906 8.628906 L 29.589844 9.820312 C 29.515625 9.796875 29.394531 9.769531 29.222656 9.746094 C 29.050781 9.722656 28.878906 9.710938 28.710938 9.710938 C 28.378906 9.710938 28.0625 9.769531 27.753906 9.894531 C 27.449219 10.015625 27.183594 10.207031 26.957031 10.46875 C 26.730469 10.730469 26.546875 11.066406 26.40625 11.476562 C 26.265625 11.882812 26.195312 12.375 26.195312 12.949219 L 26.195312 17.339844 L 24.949219 17.339844 L 24.949219 10.644531 C 24.949219 10.414062 24.941406 10.113281 24.929688 9.746094 C 24.917969 9.378906 24.898438 9.050781 24.875 8.753906 L 26.066406 8.753906 C 26.09375 8.988281 26.109375 9.246094 26.125 9.527344 C 26.136719 9.808594 26.140625 10.039062 26.140625 10.222656 L 26.179688 10.222656 C 26.421875 9.722656 26.789062 9.316406 27.277344 9.003906 C 27.769531 8.691406 28.316406 8.535156 28.929688 8.535156 "/>
<path style=" stroke:none;fill-rule:evenodd;fill:rgb(36.470588%,73.72549%,82.352941%);fill-opacity:1;" d="M 20.253906 4.574219 C 20.472656 4.574219 20.675781 4.65625 20.859375 4.820312 C 21.042969 4.984375 21.132812 5.195312 21.132812 5.453125 C 21.132812 5.710938 21.042969 5.921875 20.859375 6.085938 C 20.675781 6.25 20.472656 6.335938 20.253906 6.335938 C 20.03125 6.335938 19.832031 6.25 19.648438 6.085938 C 19.464844 5.921875 19.371094 5.710938 19.371094 5.453125 C 19.371094 5.195312 19.464844 4.984375 19.648438 4.820312 C 19.832031 4.65625 20.03125 4.574219 20.253906 4.574219 "/>
<path style=" stroke:none;fill-rule:evenodd;fill:rgb(36.470588%,73.72549%,82.352941%);fill-opacity:1;" d="M 9.945312 4.257812 L 12.511719 10.25 L 11.285156 10.605469 L 9.265625 5.734375 L 6.703125 11.914062 L 5.164062 12.347656 L 8.660156 4.257812 Z M 9.945312 4.257812 "/>
<path style=" stroke:none;fill-rule:evenodd;fill:rgb(36.470588%,73.72549%,82.352941%);fill-opacity:1;" d="M 36.339844 3.253906 C 36.5 3.253906 36.671875 3.261719 36.855469 3.28125 C 37.039062 3.296875 37.210938 3.332031 37.367188 3.378906 L 37.148438 4.480469 C 37.011719 4.445312 36.878906 4.414062 36.746094 4.390625 C 36.609375 4.367188 36.457031 4.351562 36.285156 4.351562 C 35.957031 4.351562 35.683594 4.40625 35.46875 4.519531 C 35.253906 4.628906 35.089844 4.785156 34.972656 4.984375 C 34.859375 5.1875 34.777344 5.421875 34.734375 5.691406 C 34.691406 5.960938 34.671875 6.25 34.671875 6.554688 L 34.671875 8.753906 L 36.691406 8.753906 L 36.691406 9.800781 L 34.671875 9.800781 L 34.671875 17.339844 L 33.425781 17.339844 L 33.425781 9.800781 L 31.625 9.800781 L 31.625 8.753906 L 33.425781 8.753906 L 33.425781 6.40625 C 33.425781 5.429688 33.664062 4.660156 34.140625 4.097656 C 34.617188 3.535156 35.351562 3.253906 36.339844 3.253906 "/>
</g>
</svg>
