<?xml version="1.0" encoding="UTF-8"?>
<svg xmlns="http://www.w3.org/2000/svg" xmlns:xlink="http://www.w3.org/1999/xlink" width="76pt" height="38pt" viewBox="0 0 76 38" version="1.1">
<g id="surface1">
<path style=" stroke:none;fill-rule:evenodd;fill:rgb(36.470588%,73.72549%,82.352941%);fill-opacity:1;" d="M 20.910156 19.980469 L 23.589844 26.222656 L 21.359375 26.222656 L 19.183594 21.039062 L 19.132812 20.914062 Z M 20.910156 19.980469 "/>
<path style=" stroke:none;fill-rule:evenodd;fill:rgb(36.470588%,73.72549%,82.352941%);fill-opacity:1;" d="M 23.542969 16.359375 L 4.578125 26.292969 L 6.863281 21.125 Z M 23.542969 16.359375 "/>
<path style=" stroke:none;fill-rule:evenodd;fill:rgb(36.470588%,73.72549%,82.352941%);fill-opacity:1;" d="M 31.730469 26.359375 L 29.835938 26.359375 L 29.835938 13.308594 L 31.730469 13.308594 Z M 31.730469 26.359375 "/>
<path style=" stroke:none;fill-rule:evenodd;fill:rgb(36.470588%,73.72549%,82.352941%);fill-opacity:1;" d="M 71.410156 13.308594 L 64.914062 29.734375 C 64.523438 30.738281 64.027344 31.539062 63.421875 32.144531 C 62.816406 32.75 61.949219 33.050781 60.816406 33.050781 C 60.238281 33.050781 59.671875 32.996094 59.113281 32.882812 L 59.308594 31.15625 C 59.753906 31.304688 60.21875 31.378906 60.703125 31.378906 C 61.355469 31.378906 61.867188 31.179688 62.238281 30.777344 C 62.609375 30.378906 62.933594 29.808594 63.214844 29.0625 L 64.273438 26.332031 L 58.695312 13.308594 L 60.816406 13.308594 L 65.25 24.324219 L 65.304688 24.324219 L 69.347656 13.308594 Z M 71.410156 13.308594 "/>
<path style=" stroke:none;fill-rule:evenodd;fill:rgb(36.470588%,73.72549%,82.352941%);fill-opacity:1;" d="M 43.972656 12.972656 C 44.214844 12.972656 44.433594 12.984375 44.628906 13.003906 C 44.824219 13.019531 45.023438 13.058594 45.226562 13.113281 L 44.976562 14.925781 C 44.867188 14.890625 44.679688 14.851562 44.417969 14.816406 C 44.160156 14.777344 43.898438 14.757812 43.640625 14.757812 C 43.136719 14.757812 42.652344 14.851562 42.1875 15.039062 C 41.722656 15.222656 41.320312 15.515625 40.976562 15.914062 C 40.632812 16.3125 40.351562 16.820312 40.140625 17.441406 C 39.925781 18.0625 39.820312 18.8125 39.820312 19.683594 L 39.820312 26.359375 L 37.921875 26.359375 L 37.921875 16.179688 C 37.921875 15.828125 37.914062 15.371094 37.894531 14.816406 C 37.875 14.257812 37.847656 13.753906 37.8125 13.308594 L 39.625 13.308594 C 39.660156 13.664062 39.6875 14.050781 39.707031 14.480469 C 39.726562 14.90625 39.734375 15.261719 39.734375 15.539062 L 39.789062 15.539062 C 40.164062 14.777344 40.71875 14.160156 41.464844 13.683594 C 42.207031 13.210938 43.042969 12.972656 43.972656 12.972656 "/>
<path style=" stroke:none;fill-rule:evenodd;fill:rgb(36.470588%,73.72549%,82.352941%);fill-opacity:1;" d="M 30.785156 6.949219 C 31.117188 6.949219 31.425781 7.078125 31.703125 7.328125 C 31.984375 7.578125 32.121094 7.898438 32.121094 8.289062 C 32.121094 8.679688 31.984375 9 31.703125 9.25 C 31.425781 9.503906 31.117188 9.628906 30.785156 9.628906 C 30.449219 9.628906 30.144531 9.503906 29.863281 9.25 C 29.585938 9 29.445312 8.679688 29.445312 8.289062 C 29.445312 7.898438 29.585938 7.578125 29.863281 7.328125 C 30.144531 7.078125 30.449219 6.949219 30.785156 6.949219 "/>
<path style=" stroke:none;fill-rule:evenodd;fill:rgb(36.470588%,73.72549%,82.352941%);fill-opacity:1;" d="M 15.113281 6.476562 L 19.019531 15.578125 L 17.152344 16.117188 L 14.082031 8.71875 L 10.1875 18.105469 L 7.851562 18.765625 L 13.160156 6.476562 Z M 15.113281 6.476562 "/>
<path style=" stroke:none;fill-rule:evenodd;fill:rgb(36.470588%,73.72549%,82.352941%);fill-opacity:1;" d="M 55.238281 4.945312 C 55.480469 4.945312 55.738281 4.957031 56.019531 4.984375 C 56.296875 5.011719 56.558594 5.066406 56.800781 5.136719 L 56.464844 6.8125 C 56.261719 6.757812 56.054688 6.710938 55.851562 6.671875 C 55.648438 6.636719 55.414062 6.617188 55.15625 6.617188 C 54.652344 6.617188 54.238281 6.699219 53.914062 6.867188 C 53.589844 7.035156 53.335938 7.273438 53.160156 7.578125 C 52.984375 7.886719 52.863281 8.242188 52.796875 8.652344 C 52.734375 9.0625 52.699219 9.5 52.699219 9.960938 L 52.699219 13.308594 L 55.769531 13.308594 L 55.769531 14.898438 L 52.699219 14.898438 L 52.699219 26.359375 L 50.804688 26.359375 L 50.804688 14.898438 L 48.070312 14.898438 L 48.070312 13.308594 L 50.804688 13.308594 L 50.804688 9.738281 C 50.804688 8.253906 51.167969 7.082031 51.890625 6.226562 C 52.617188 5.371094 53.734375 4.945312 55.238281 4.945312 "/>
</g>
</svg>
