<?xml version="1.0" encoding="UTF-8" standalone="no"?>
<svg
   xmlns:dc="http://purl.org/dc/elements/1.1/"
   xmlns:cc="http://creativecommons.org/ns#"
   xmlns:rdf="http://www.w3.org/1999/02/22-rdf-syntax-ns#"
   xmlns:svg="http://www.w3.org/2000/svg"
   xmlns="http://www.w3.org/2000/svg"
   viewBox="0 0 755.90668 377.94666"
   height="377.94666"
   width="755.90668"
   xml:space="preserve"
   id="svg2"
   version="1.1"><metadata
     id="metadata8"><rdf:RDF><cc:Work
         rdf:about=""><dc:format>image/svg+xml</dc:format><dc:type
           rdf:resource="http://purl.org/dc/dcmitype/StillImage" /><dc:title></dc:title></cc:Work></rdf:RDF></metadata><defs
     id="defs6"><clipPath
       id="clipPath28"
       clipPathUnits="userSpaceOnUse"><path
         id="path26"
         d="M 0,283.46 H 566.93 V 0 H 0 Z" /></clipPath></defs><g
     transform="matrix(1.3333333,0,0,-1.3333333,0,377.94667)"
     id="g10"><g
       transform="translate(155.9909,134.3952)"
       id="g12"><path
         id="path14"
         style="fill:#5dbcd2;fill-opacity:1;fill-rule:evenodd;stroke:none"
         d="M 0,0 20.011,-46.581 H 3.368 l -16.226,38.673 -0.396,0.941 z" /></g><g
       transform="translate(175.6489,161.4127)"
       id="g16"><path
         id="path18"
         style="fill:#5dbcd2;fill-opacity:1;fill-rule:evenodd;stroke:none"
         d="m 0,0 -141.486,-74.122 17.038,38.574 z" /></g><path
       id="path20"
       style="fill:#5dbcd2;fill-opacity:1;fill-rule:evenodd;stroke:none"
       d="m 236.738,86.81 h -14.146 v 97.36 h 14.146 z" /><g
       id="g22"><g
         clip-path="url(#clipPath28)"
         id="g24"><g
           transform="translate(532.7666,184.1697)"
           id="g30"><path
             id="path32"
             style="fill:#5dbcd2;fill-opacity:1;fill-rule:evenodd;stroke:none"
             d="m 0,0 -48.472,-122.532 c -2.912,-7.49 -6.625,-13.488 -11.13,-17.995 -4.508,-4.505 -10.993,-6.762 -19.451,-6.762 -4.3,0 -8.53,0.417 -12.69,1.248 l 1.456,12.899 c 3.328,-1.108 6.793,-1.664 10.402,-1.664 4.852,0 8.666,1.492 11.441,4.473 2.774,2.984 5.202,7.248 7.282,12.794 l 7.905,20.387 L -94.863,0 h 15.81 l 33.078,-82.174 h 0.415 L -15.395,0 Z" /></g><g
           transform="translate(328.0647,186.6649)"
           id="g34"><path
             id="path36"
             style="fill:#5dbcd2;fill-opacity:1;fill-rule:evenodd;stroke:none"
             d="M 0,0 C 1.801,0 3.433,-0.071 4.889,-0.207 6.345,-0.347 7.834,-0.623 9.361,-1.04 L 7.489,-14.562 c -0.832,0.277 -2.219,0.553 -4.16,0.833 -1.944,0.277 -3.885,0.415 -5.825,0.415 -3.744,0 -7.353,-0.692 -10.818,-2.076 -3.469,-1.386 -6.485,-3.563 -9.049,-6.537 -2.569,-2.975 -4.649,-6.778 -6.241,-11.413 -1.596,-4.635 -2.393,-10.206 -2.393,-16.707 v -49.808 h -14.146 v 75.933 c 0,2.632 -0.072,6.032 -0.208,10.193 -0.14,4.161 -0.348,7.905 -0.624,11.234 h 13.522 c 0.276,-2.637 0.485,-5.549 0.624,-8.739 0.136,-3.191 0.208,-5.825 0.208,-7.905 h 0.416 c 2.773,5.687 6.933,10.299 12.482,13.836 C -13.178,-1.768 -6.937,0 0,0" /></g><g
           transform="translate(229.6655,231.6012)"
           id="g38"><path
             id="path40"
             style="fill:#5dbcd2;fill-opacity:1;fill-rule:evenodd;stroke:none"
             d="m 0,0 c 2.496,0 4.784,-0.936 6.865,-2.809 2.081,-1.872 3.121,-4.264 3.121,-7.178 0,-2.912 -1.04,-5.303 -3.121,-7.176 -2.081,-1.872 -4.369,-2.809 -6.865,-2.809 -2.497,0 -4.785,0.937 -6.865,2.809 -2.08,1.873 -3.12,4.264 -3.12,7.176 0,2.914 1.04,5.306 3.12,7.178 C -4.785,-0.936 -2.497,0 0,0" /></g><g
           transform="translate(112.759,235.1558)"
           id="g42"><path
             id="path44"
             style="fill:#5dbcd2;fill-opacity:1;fill-rule:evenodd;stroke:none"
             d="M 0,0 29.138,-67.911 15.204,-71.941 -7.697,-16.742 -36.757,-86.783 -54.178,-91.71 -14.563,0 Z" /></g><g
           transform="translate(412.1073,246.579)"
           id="g46"><path
             id="path48"
             style="fill:#5dbcd2;fill-opacity:1;fill-rule:evenodd;stroke:none"
             d="M 0,0 C 1.801,0 3.744,-0.104 5.824,-0.312 7.905,-0.52 9.846,-0.903 11.65,-1.456 L 9.153,-13.938 c -1.527,0.416 -3.051,0.761 -4.576,1.04 -1.528,0.277 -3.261,0.416 -5.201,0.416 -3.745,0 -6.833,-0.624 -9.258,-1.872 -2.428,-1.248 -4.3,-3.017 -5.617,-5.305 -1.319,-2.288 -2.22,-4.96 -2.704,-8.008 -0.488,-3.053 -0.728,-6.314 -0.728,-9.779 V -62.409 H 3.952 v -11.859 h -22.883 v -85.501 h -14.147 v 85.501 h -20.387 v 11.859 h 20.387 v 26.628 c 0,11.093 2.705,19.832 8.114,26.212 C -19.555,-3.191 -11.234,0 0,0" /></g></g></g></g></svg>